<svg id="Layer_1" enable-background="new 0 0 512 512" viewBox="0 0 512 512" xmlns="http://www.w3.org/2000/svg"><g clip-rule="evenodd" fill-rule="evenodd"><g><path d="m187.896 65.406c-21.416 7.655-41.166 18.815-58.556 32.792-.688.553-1.068 1.294-1.116 2.176s.25 1.659.874 2.284l22.392 22.392c1.073 1.073 2.751 1.181 3.952.255 7.602-5.858 15.73-11.068 24.299-15.547.831-.434 1.725-.466 2.585-.093.86.374 1.447 1.049 1.696 1.952l18.135 65.616c.262.949.9 1.651 1.82 2.003s1.864.254 2.692-.277c14.235-9.136 31.165-14.436 49.331-14.436 18.163 0 35.091 5.299 49.324 14.432.829.532 1.773.629 2.692.277s1.558-1.054 1.819-2.003l18.123-65.619c.25-.904.836-1.579 1.696-1.953s1.754-.342 2.585.092c8.576 4.481 16.71 9.694 24.318 15.556 1.201.926 2.88.818 3.952-.255l22.392-22.392c.624-.625.922-1.402.874-2.284s-.428-1.623-1.116-2.176c-17.39-13.976-37.139-25.136-58.555-32.791-.842-.301-1.684-.232-2.466.202-.782.435-1.285 1.114-1.474 1.989-6.396 29.555-32.699 51.709-64.164 51.709s-57.768-22.154-64.164-51.71c-.189-.874-.693-1.554-1.474-1.989-.782-.434-1.624-.503-2.466-.202zm121.947 269.362 18.134 65.615c.25.904.836 1.579 1.696 1.953.86.373 1.754.341 2.585-.093 8.569-4.479 16.698-9.688 24.3-15.546 1.201-.926 2.88-.818 3.952.255l22.392 22.392c.624.625.922 1.402.874 2.284s-.428 1.622-1.116 2.176c-17.391 13.976-37.14 25.137-58.556 32.791-.842.301-1.684.232-2.466-.202-.782-.435-1.285-1.114-1.474-1.989-6.396-29.555-32.699-51.709-64.164-51.709s-57.767 22.154-64.164 51.709c-.189.874-.693 1.554-1.474 1.989-.782.434-1.624.503-2.466.202-21.416-7.655-41.165-18.815-58.556-32.792-.688-.553-1.068-1.294-1.116-2.176s.25-1.659.874-2.284l22.392-22.391c1.072-1.073 2.751-1.181 3.952-.255 7.608 5.862 15.742 11.075 24.318 15.556.831.434 1.725.466 2.585.093.86-.374 1.446-1.049 1.696-1.953l18.123-65.62c.262-.949.9-1.651 1.82-2.003.919-.352 1.863-.255 2.692.277 14.234 9.133 31.161 14.432 49.325 14.432 18.166 0 35.096-5.301 49.331-14.436.829-.532 1.772-.629 2.692-.277.919.351 1.557 1.053 1.819 2.002zm-132.611-24.925-65.615 18.135c-.904.25-1.579.836-1.952 1.696s-.341 1.754.093 2.585c4.479 8.569 9.688 16.697 15.546 24.299.926 1.201.818 2.88-.255 3.952l-22.392 22.392c-.624.624-1.402.922-2.284.874s-1.623-.428-2.176-1.116c-13.977-17.39-25.137-37.14-32.792-58.556-.301-.842-.232-1.684.202-2.466.435-.782 1.114-1.285 1.989-1.474 29.555-6.396 51.71-32.699 51.71-64.164s-22.154-57.767-51.709-64.164c-.874-.189-1.554-.693-1.988-1.474-.434-.782-.503-1.624-.202-2.466 7.655-21.416 18.815-41.165 32.791-58.555.553-.688 1.294-1.068 2.176-1.116s1.659.25 2.284.874l22.391 22.391c1.073 1.072 1.181 2.751.255 3.952-5.862 7.608-11.075 15.742-15.556 24.318-.434.831-.466 1.725-.092 2.585s1.049 1.447 1.953 1.696l65.619 18.123c.949.262 1.651.9 2.003 1.82s.255 1.864-.277 2.692c-9.133 14.234-14.432 31.161-14.432 49.325 0 18.166 5.3 35.097 14.436 49.331.532.829.629 1.772.277 2.692-.351.919-1.054 1.557-2.003 1.819zm157.536-107.686 65.616-18.135c.904-.25 1.579-.836 1.952-1.696s.341-1.754-.093-2.585c-4.479-8.57-9.689-16.697-15.547-24.299-.926-1.201-.818-2.88.255-3.952l22.391-22.392c.624-.624 1.402-.922 2.284-.874s1.623.428 2.176 1.116c13.977 17.39 25.138 37.14 32.792 58.556.301.842.232 1.684-.202 2.466-.435.782-1.114 1.285-1.989 1.474-29.555 6.396-51.71 32.699-51.71 64.164s22.155 57.767 51.71 64.164c.874.189 1.554.693 1.989 1.474.434.782.503 1.624.202 2.466-7.655 21.416-18.815 41.166-32.792 58.556-.553.688-1.294 1.068-2.176 1.116s-1.659-.25-2.284-.874l-22.392-22.392c-1.072-1.073-1.181-2.751-.255-3.952 5.862-7.607 11.075-15.741 15.557-24.318.434-.831.466-1.725.092-2.585s-1.049-1.446-1.953-1.696l-65.62-18.123c-.949-.262-1.651-.9-2.003-1.819-.352-.92-.255-1.864.277-2.692 9.133-14.233 14.432-31.161 14.432-49.324 0-18.166-5.3-35.097-14.436-49.331-.532-.828-.629-1.772-.277-2.692.353-.921 1.055-1.559 2.004-1.821z" fill="#66d4f1"/><path d="m256 496c-20.796 0-37.654-16.858-37.654-37.654s16.858-37.653 37.654-37.653 37.653 16.858 37.653 37.653-16.857 37.654-37.653 37.654zm0-480c20.796 0 37.653 16.858 37.653 37.653s-16.857 37.654-37.653 37.654-37.654-16.858-37.654-37.653 16.859-37.654 37.654-37.654zm240 240c0 20.795-16.858 37.653-37.654 37.653s-37.653-16.858-37.653-37.653c0-20.796 16.858-37.654 37.653-37.654 20.796.001 37.654 16.859 37.654 37.654zm-480 0c0-20.796 16.858-37.654 37.653-37.654 20.796 0 37.654 16.858 37.654 37.654 0 20.795-16.858 37.653-37.654 37.653-20.795.001-37.653-16.857-37.653-37.653z" fill="#efc7a4"/><path d="m316.181 266.672c-12.684 0-19.049 15.367-10.08 24.336 1.652 1.652 1.652 4.332 0 5.984l-9.109 9.109c-1.652 1.652-4.332 1.652-5.984 0-8.969-8.969-24.336-2.604-24.336 10.08 0 2.338-1.895 4.231-4.231 4.231h-12.882c-2.336 0-4.231-1.893-4.231-4.231 0-12.7-15.355-19.061-24.336-10.08-1.652 1.652-4.332 1.652-5.984 0l-9.109-9.109c-1.652-1.652-1.652-4.332 0-5.984 8.969-8.969 2.604-24.336-10.08-24.336-2.338 0-4.231-1.895-4.231-4.231v-12.882c0-2.336 1.893-4.231 4.231-4.231 12.684 0 19.049-15.367 10.08-24.336-1.652-1.652-1.652-4.332 0-5.984l9.109-9.109c1.652-1.652 4.332-1.652 5.984 0 8.969 8.969 24.336 2.605 24.336-10.08 0-2.338 1.895-4.231 4.231-4.231h12.882c2.336 0 4.231 1.893 4.231 4.231 0 12.685 15.367 19.049 24.336 10.08 1.652-1.652 4.332-1.652 5.984 0l9.109 9.109c1.652 1.653 1.652 4.332 0 5.984-8.969 8.969-2.604 24.336 10.08 24.336 2.338 0 4.231 1.895 4.231 4.231v12.882c.001 2.336-1.893 4.231-4.231 4.231zm-60.181-41.621c-17.093 0-30.949 13.856-30.949 30.949s13.856 30.949 30.949 30.949 30.949-13.856 30.949-30.949c0-17.092-13.857-30.949-30.949-30.949z" fill="#fdcd56"/></g><path d="m296.555 272.794c-2.995 7.228-1.912 15.077 2.759 21.081l-5.433 5.435c-6.005-4.672-13.855-5.755-21.083-2.757-7.227 2.988-12.012 9.308-12.953 16.86h-7.687c-.941-7.562-5.724-13.881-12.951-16.869-7.226-2.993-15.076-1.911-21.085 2.767l-5.435-5.435c4.671-6.004 5.756-13.853 2.761-21.081-2.996-7.228-9.31-12.013-16.859-12.954v-7.689c7.549-.941 13.863-5.722 16.859-12.954 2.995-7.228 1.91-15.077-2.761-21.081l5.435-5.435c6.005 4.673 13.854 5.755 21.081 2.762 7.227-2.997 12.012-9.312 12.955-16.86h7.687c.941 7.548 5.726 13.863 12.953 16.86 7.23 2.993 15.078 1.91 21.083-2.762l5.435 5.435c-4.673 6.004-5.755 13.853-2.761 21.081 2.994 7.232 9.31 12.013 16.857 12.954v7.689c-7.547.94-13.862 5.725-16.857 12.953zm19.627.875c6.193 0 11.231-5.04 11.231-11.232v-12.884c0-6.193-5.038-11.228-11.231-11.228-4.487 0-6.257-3.435-6.693-4.484-.436-1.054-1.61-4.734 1.562-7.905 4.379-4.376 4.379-11.5 0-15.881l-9.109-9.115c-4.38-4.376-11.503-4.376-15.883.005-3.174 3.172-6.853 1.995-7.904 1.562-1.051-.438-4.483-2.207-4.483-6.691 0-6.192-5.038-11.232-11.231-11.232h-12.881c-6.194 0-11.232 5.04-11.232 11.232 0 4.484-3.432 6.254-4.481 6.691-1.053.433-4.731 1.609-7.904-1.562-4.378-4.381-11.503-4.381-15.885 0l-9.109 9.11c-4.379 4.381-4.379 11.505.002 15.881 3.173 3.172 1.998 6.851 1.562 7.905-.438 1.049-2.208 4.484-6.694 4.484-6.193 0-11.231 5.035-11.231 11.228v12.884c0 6.192 5.038 11.232 11.231 11.232 4.487 0 6.257 3.43 6.694 4.484.436 1.049 1.61 4.729-1.562 7.9-4.38 4.381-4.38 11.505 0 15.886l9.108 9.11c2.121 2.117 4.943 3.289 7.942 3.289 3 0 5.821-1.172 7.942-3.289 3.18-3.181 6.856-2.009 7.906-1.567 1.051.428 4.479 2.197 4.479 6.696 0 6.193 5.038 11.232 11.232 11.232h12.882c6.193 0 11.231-5.04 11.231-11.232 0-4.489 3.432-6.258 4.483-6.691 1.051-.438 4.731-1.619 7.904 1.562 4.378 4.381 11.504 4.381 15.883 0l9.109-9.11c4.379-4.381 4.379-11.505 0-15.886-3.172-3.171-1.998-6.851-1.562-7.9.436-1.053 2.206-4.484 6.692-4.484zm-60.181 6.277c13.205 0 23.949-10.743 23.949-23.951 0-13.204-10.744-23.946-23.949-23.946-13.206 0-23.949 10.742-23.949 23.946.001 13.209 10.743 23.951 23.949 23.951zm0-61.901c-20.925 0-37.949 17.025-37.949 37.95s17.024 37.95 37.949 37.95 37.949-17.025 37.949-37.95-17.024-37.95-37.949-37.95zm0-195.048c16.901 0 30.652 13.75 30.652 30.652s-13.751 30.656-30.652 30.656c-16.903 0-30.654-13.754-30.654-30.656 0-16.903 13.751-30.652 30.654-30.652zm0 75.307c24.621 0 44.653-20.031 44.653-44.655 0-24.62-20.032-44.651-44.653-44.651-24.623 0-44.654 20.031-44.654 44.651 0 24.624 20.031 44.655 44.654 44.655zm0 390.695c-16.903 0-30.654-13.75-30.654-30.656 0-16.902 13.751-30.652 30.654-30.652 16.901 0 30.652 13.75 30.652 30.652.001 16.906-13.75 30.656-30.652 30.656zm0-75.308c-24.623 0-44.654 20.027-44.654 44.651 0 24.619 20.032 44.66 44.654 44.66 24.621 0 44.653-20.041 44.653-44.66 0-24.624-20.032-44.651-44.653-44.651zm-202.346-127.039c-16.903 0-30.654-13.754-30.654-30.656s13.751-30.652 30.654-30.652 30.654 13.75 30.654 30.652c0 16.901-13.751 30.656-30.654 30.656zm44.653-30.657c0-24.619-20.031-44.651-44.653-44.651-24.622.001-44.655 20.032-44.655 44.651 0 24.624 20.033 44.655 44.655 44.655 24.621.001 44.653-20.031 44.653-44.655zm360.04 30.657c-16.903 0-30.654-13.754-30.654-30.656s13.751-30.652 30.654-30.652c16.901 0 30.653 13.75 30.653 30.652 0 16.901-13.752 30.656-30.653 30.656zm0-75.307c-24.623 0-44.655 20.032-44.655 44.651 0 24.624 20.032 44.655 44.655 44.655 24.62 0 44.652-20.031 44.652-44.655 0-24.62-20.031-44.651-44.652-44.651zm-132.459 227.126c17.537-6.719 33.922-15.891 48.875-27.372l-16.743-16.737c-8.172 6.028-16.881 11.34-25.963 15.829-1.872.932-4.057.97-5.963.118-1.904-.861-3.33-2.518-3.886-4.527l-17.705-64.061c-14.741 8.371-31.328 12.747-48.504 12.747-17.171 0-33.754-4.376-48.495-12.747l-17.695 64.07c-.555 2.009-1.98 3.67-3.884 4.531-1.906.847-4.091.805-5.963-.122-9.089-4.489-17.806-9.802-25.986-15.839l-16.743 16.737c14.953 11.481 31.339 20.653 48.875 27.372 3.878-13.632 11.72-25.932 22.594-35.273 13.152-11.289 29.948-17.509 47.296-17.509s34.145 6.221 47.296 17.509c10.877 9.342 18.718 21.642 22.594 35.274zm37.692-58.349 26.617 26.61c1.39 1.398 2.133 3.308 2.042 5.28-.09 1.957-1.005 3.797-2.518 5.058-19.877 16.521-42.311 29.071-66.684 37.301-.73.249-1.487.367-2.241.367-1.259 0-2.509-.339-3.61-.997-1.765-1.059-2.97-2.852-3.299-4.88-4.632-28.492-28.976-49.168-57.887-49.168s-53.257 20.676-57.887 49.168c-.331 2.028-1.536 3.821-3.299 4.88-1.761 1.059-3.903 1.289-5.851.63-24.375-8.23-46.811-20.789-66.684-37.301-1.514-1.261-2.428-3.101-2.518-5.058-.09-1.972.651-3.882 2.042-5.28l26.615-26.61c2.518-2.522 6.525-2.753 9.31-.532 6.581 5.237 13.587 9.962 20.907 14.079l17.892-64.781c.607-2.197 2.245-3.957 4.391-4.729 2.147-.772 4.533-.438 6.397.871 14.293 10.112 31.128 15.439 48.686 15.439 17.559 0 34.398-5.341 48.692-15.439 1.862-1.322 4.247-1.642 6.394-.88 2.147.772 3.786 2.532 4.393 4.729l17.905 64.781c7.314-4.118 14.313-8.832 20.886-14.07 2.786-2.22 6.793-1.99 9.309.532zm47.524-5.359c11.477-14.954 20.653-31.344 27.367-48.871-13.622-3.882-25.932-11.722-35.268-22.601-11.291-13.147-17.512-29.946-17.512-47.295s6.22-34.143 17.512-47.295c9.336-10.874 21.646-18.714 35.268-22.591-6.715-17.537-15.89-33.927-27.367-48.876l-16.745 16.742c6.034 8.173 11.349 16.883 15.837 25.965.927 1.868.969 4.056.115 5.962-.853 1.906-2.511 3.327-4.524 3.887l-64.065 17.707c8.373 14.738 12.756 31.325 12.756 48.5s-4.384 33.758-12.752 48.495l64.07 17.697c2.011.551 3.671 1.981 4.523 3.882.853 1.91.813 4.089-.112 5.962-4.492 9.086-9.81 17.806-15.848 25.989zm37.762-60.885c2.031.334 3.814 1.543 4.875 3.303s1.294 3.896.634 5.849c-8.237 24.379-20.787 46.82-37.304 66.687-1.259 1.515-3.095 2.433-5.062 2.522-.107 0-.215 0-.322 0-1.85 0-3.632-.729-4.948-2.051l-26.618-26.61c-2.516-2.517-2.743-6.527-.526-9.308 5.239-6.583 9.957-13.59 14.082-20.911l-64.786-17.89c-2.199-.612-3.963-2.249-4.73-4.39-.766-2.15-.441-4.536.875-6.399 10.102-14.291 15.44-31.122 15.44-48.683s-5.339-34.397-15.444-48.693c-1.314-1.859-1.643-4.244-.875-6.395.767-2.146 2.529-3.783 4.728-4.39l64.779-17.904c-4.12-7.317-8.836-14.314-14.07-20.888-2.217-2.786-1.991-6.79.526-9.308l26.618-26.619c1.392-1.388 3.307-2.136 5.27-2.042 1.967.09 3.803 1.007 5.062 2.518 16.517 19.871 29.067 42.312 37.304 66.687.66 1.948.426 4.089-.634 5.849-1.06 1.765-2.844 2.969-4.875 3.303-28.492 4.63-49.173 28.972-49.173 57.883.001 28.908 20.682 53.25 49.174 57.88zm-347.971 60.885 16.745-16.742c-6.034-8.183-11.346-16.879-15.837-25.97-.925-1.873-.967-4.051-.115-5.962.853-1.901 2.513-3.332 4.526-3.877l64.065-17.712c-8.372-14.742-12.756-31.324-12.756-48.504 0-17.17 4.382-33.753 12.753-48.495l-64.068-17.693c-2.013-.555-3.673-1.981-4.525-3.887-.855-1.901-.812-4.089.112-5.962 4.492-9.091 9.808-17.805 15.846-25.984l-16.743-16.742c-11.478 14.954-20.653 31.339-27.367 48.876 13.622 3.878 25.932 11.717 35.267 22.591 11.292 13.152 17.51 29.946 17.51 47.295s-6.218 34.148-17.51 47.295c-9.338 10.879-21.645 18.719-35.267 22.601 6.712 17.528 15.886 33.918 27.364 48.872zm31.508-20.493c2.219 2.781 1.993 6.79-.525 9.308l-26.616 26.61c-1.316 1.322-3.097 2.051-4.95 2.051-.107 0-.213 0-.322 0-1.967-.089-3.803-1.007-5.062-2.522-16.517-19.876-29.067-42.307-37.304-66.687-.658-1.953-.426-4.089.636-5.849 1.06-1.76 2.843-2.969 4.873-3.303 28.494-4.63 49.173-28.972 49.173-57.883s-20.678-53.252-49.171-57.883c-2.031-.334-3.814-1.539-4.874-3.303-1.061-1.76-1.294-3.901-.634-5.849 8.235-24.374 20.787-46.811 37.304-66.687 1.257-1.51 3.093-2.423 5.06-2.518 1.965-.103 3.88.654 5.272 2.042l26.616 26.619c2.518 2.513 2.744 6.522.525 9.308-5.238 6.578-9.953 13.585-14.08 20.907l64.785 17.89c2.199.607 3.963 2.245 4.73 4.395.766 2.146.439 4.532-.877 6.395-10.1 14.291-15.44 31.127-15.44 48.683 0 17.566 5.339 34.402 15.444 48.698 1.316 1.859 1.643 4.249.876 6.385-.766 2.15-2.529 3.793-4.728 4.405l-64.781 17.895c4.122 7.313 8.835 14.31 14.07 20.893zm53.708-280.745c-17.537 6.715-33.924 15.89-48.875 27.367l16.745 16.742c8.173-6.032 16.881-11.345 25.963-15.834.976-.485 2.037-.725 3.101-.725.974 0 1.95.202 2.86.612 1.906.852 3.331 2.513 3.886 4.522l17.707 64.065c14.741-8.371 31.326-12.757 48.503-12.757 17.173 0 33.753 4.381 48.495 12.752l17.693-64.066c.557-2.014 1.982-3.675 3.888-4.527 1.903-.852 4.09-.809 5.961.113 9.089 4.489 17.804 9.806 25.982 15.848l16.745-16.747c-14.951-11.477-31.338-20.653-48.875-27.367-3.876 13.622-11.72 25.932-22.592 35.268-13.152 11.293-29.948 17.509-47.296 17.509s-34.144-6.216-47.296-17.509c-10.876-9.334-18.717-21.644-22.595-35.266zm-37.692 58.348-26.615-26.615c-1.392-1.393-2.133-3.303-2.042-5.27.09-1.967 1.004-3.802 2.518-5.063 19.872-16.516 42.307-29.071 66.684-37.305 1.948-.659 4.09-.428 5.851.635 1.763 1.059 2.968 2.842 3.299 4.875 4.63 28.492 28.976 49.173 57.887 49.173s53.255-20.681 57.887-49.173c.329-2.033 1.534-3.816 3.299-4.875 1.761-1.059 3.9-1.294 5.851-.635 24.373 8.235 46.809 20.789 66.684 37.305 1.513 1.256 2.428 3.096 2.518 5.063.09 1.962-.652 3.877-2.042 5.27l-26.617 26.615c-2.517 2.517-6.523 2.748-9.31.527-6.579-5.237-13.583-9.957-20.905-14.079l-17.892 64.781c-.609 2.202-2.246 3.967-4.393 4.734-2.145.767-4.531.437-6.395-.875-14.293-10.103-31.129-15.443-48.686-15.443-17.563 0-34.4 5.341-48.693 15.443-1.197.847-2.612 1.285-4.04 1.285-.793 0-1.588-.132-2.353-.405-2.147-.771-3.786-2.532-4.395-4.729l-17.903-64.781c-7.314 4.122-14.313 8.837-20.888 14.069-2.784 2.221-6.791 1.991-9.309-.527z"/></g></svg>